<?xml version="1.0" encoding="UTF-8"?>
<svg version="1.1" xmlns="http://www.w3.org/2000/svg" width="50" height="50">
<path d="M0 0 C1.71316406 -0.00773438 1.71316406 -0.00773438 3.4609375 -0.015625 C4.64945313 -0.00015625 5.83796875 0.0153125 7.0625 0.03125 C8.25101563 0.01578125 9.43953125 0.0003125 10.6640625 -0.015625 C11.80617188 -0.01046875 12.94828125 -0.0053125 14.125 0 C15.16785156 0.00451172 16.21070313 0.00902344 17.28515625 0.01367188 C20.81833416 0.67210517 21.98941153 1.61529103 24.0625 4.53125 C24.5324707 7.24853516 24.5324707 7.24853516 24.48828125 10.3203125 C24.47571289 11.97933594 24.47571289 11.97933594 24.46289062 13.671875 C24.43388672 14.82171875 24.40488281 15.9715625 24.375 17.15625 C24.36049805 18.89261719 24.36049805 18.89261719 24.34570312 20.6640625 C24.23110651 29.19403699 24.23110651 29.19403699 23.0625 31.53125 C24.0525 31.53125 25.0425 31.53125 26.0625 31.53125 C26.0625 32.52125 26.0625 33.51125 26.0625 34.53125 C13.5225 34.53125 0.9825 34.53125 -11.9375 34.53125 C-11.9375 33.54125 -11.9375 32.55125 -11.9375 31.53125 C-10.9475 31.53125 -9.9575 31.53125 -8.9375 31.53125 C-9.2675 30.87125 -9.5975 30.21125 -9.9375 29.53125 C-10.23404768 25.41230496 -10.21552033 21.28461582 -10.25 17.15625 C-10.27900391 16.00640625 -10.30800781 14.8565625 -10.33789062 13.671875 C-10.34626953 12.56585938 -10.35464844 11.45984375 -10.36328125 10.3203125 C-10.37786377 9.30662598 -10.39244629 8.29293945 -10.4074707 7.24853516 C-9.36267105 1.20769355 -5.63195507 0.02436569 0 0 Z " fill="#F1697A" transform="translate(17.9375,9.46875)"/>
<path d="M0 0 C1.71316406 -0.00773438 1.71316406 -0.00773438 3.4609375 -0.015625 C4.64945313 -0.00015625 5.83796875 0.0153125 7.0625 0.03125 C8.25101563 0.01578125 9.43953125 0.0003125 10.6640625 -0.015625 C11.80617188 -0.01046875 12.94828125 -0.0053125 14.125 0 C15.16785156 0.00451172 16.21070313 0.00902344 17.28515625 0.01367188 C20.81833416 0.67210517 21.98941153 1.61529103 24.0625 4.53125 C24.5324707 7.24853516 24.5324707 7.24853516 24.48828125 10.3203125 C24.47571289 11.97933594 24.47571289 11.97933594 24.46289062 13.671875 C24.43388672 14.82171875 24.40488281 15.9715625 24.375 17.15625 C24.36049805 18.89261719 24.36049805 18.89261719 24.34570312 20.6640625 C24.23110651 29.19403699 24.23110651 29.19403699 23.0625 31.53125 C24.0525 31.53125 25.0425 31.53125 26.0625 31.53125 C26.0625 32.52125 26.0625 33.51125 26.0625 34.53125 C13.5225 34.53125 0.9825 34.53125 -11.9375 34.53125 C-11.9375 33.54125 -11.9375 32.55125 -11.9375 31.53125 C-10.9475 31.53125 -9.9575 31.53125 -8.9375 31.53125 C-9.2675 30.87125 -9.5975 30.21125 -9.9375 29.53125 C-10.23404768 25.41230496 -10.21552033 21.28461582 -10.25 17.15625 C-10.27900391 16.00640625 -10.30800781 14.8565625 -10.33789062 13.671875 C-10.34626953 12.56585938 -10.35464844 11.45984375 -10.36328125 10.3203125 C-10.37786377 9.30662598 -10.39244629 8.29293945 -10.4074707 7.24853516 C-9.36267105 1.20769355 -5.63195507 0.02436569 0 0 Z M-6.75244141 5.27539062 C-8.07457703 7.79218774 -8.32385087 9.32913023 -8.3359375 12.15625 C-8.33980469 13.02765625 -8.34367188 13.8990625 -8.34765625 14.796875 C-8.33605469 15.69921875 -8.32445312 16.6015625 -8.3125 17.53125 C-8.32410156 18.43359375 -8.33570313 19.3359375 -8.34765625 20.265625 C-8.34378906 21.13703125 -8.33992187 22.0084375 -8.3359375 22.90625 C-8.33255371 23.69773437 -8.32916992 24.48921875 -8.32568359 25.3046875 C-7.8243281 28.18038694 -7.04333744 29.50756118 -4.9375 31.53125 C-2.38623813 32.14638978 -2.38623813 32.14638978 0.5 32.0625 C1.55960938 32.06765625 2.61921875 32.0728125 3.7109375 32.078125 C4.81695312 32.06265625 5.92296875 32.0471875 7.0625 32.03125 C8.16851563 32.04671875 9.27453125 32.0621875 10.4140625 32.078125 C12.00347656 32.07039063 12.00347656 32.07039063 13.625 32.0625 C14.59566406 32.05798828 15.56632812 32.05347656 16.56640625 32.04882812 C19.16694593 31.7404616 19.16694593 31.7404616 20.87744141 29.78710938 C22.19957703 27.27031226 22.44885087 25.73336977 22.4609375 22.90625 C22.46480469 22.03484375 22.46867187 21.1634375 22.47265625 20.265625 C22.46105469 19.36328125 22.44945313 18.4609375 22.4375 17.53125 C22.44910156 16.62890625 22.46070312 15.7265625 22.47265625 14.796875 C22.46685547 13.48976563 22.46685547 13.48976563 22.4609375 12.15625 C22.45755371 11.36476563 22.45416992 10.57328125 22.45068359 9.7578125 C21.9493281 6.88211306 21.16833744 5.55493882 19.0625 3.53125 C16.51123813 2.91611022 16.51123813 2.91611022 13.625 3 C12.56539062 2.99484375 11.50578125 2.9896875 10.4140625 2.984375 C9.30804687 2.99984375 8.20203125 3.0153125 7.0625 3.03125 C5.95648438 3.01578125 4.85046875 3.0003125 3.7109375 2.984375 C2.65132812 2.98953125 1.59171875 2.9946875 0.5 3 C-0.47066406 3.00451172 -1.44132812 3.00902344 -2.44140625 3.01367188 C-5.04194593 3.3220384 -5.04194593 3.3220384 -6.75244141 5.27539062 Z " fill="#4C5159" transform="translate(17.9375,9.46875)"/>
<path d="M0 0 C1.06734375 -0.00257812 2.1346875 -0.00515625 3.234375 -0.0078125 C4.91273437 0.00378906 4.91273437 0.00378906 6.625 0.015625 C7.74390625 0.00789062 8.8628125 0.00015625 10.015625 -0.0078125 C11.08296875 -0.00523438 12.1503125 -0.00265625 13.25 0 C14.23226562 0.00225586 15.21453125 0.00451172 16.2265625 0.00683594 C18.625 0.265625 18.625 0.265625 20.625 2.265625 C20.89491906 4.95401885 20.71237357 7.55704436 20.625 10.265625 C19.16707116 10.31962236 17.70857288 10.35841677 16.25 10.390625 C15.43789063 10.41382813 14.62578125 10.43703125 13.7890625 10.4609375 C11.625 10.265625 11.625 10.265625 9.625 8.265625 C7.55625966 7.6231015 7.55625966 7.6231015 5.625 7.265625 C5.625 7.925625 5.625 8.585625 5.625 9.265625 C6.24375 9.389375 6.8625 9.513125 7.5 9.640625 C9.625 10.265625 9.625 10.265625 11.625 12.265625 C11.06944444 16.82118056 11.06944444 16.82118056 9.625 18.265625 C6.75 18.640625 6.75 18.640625 3.625 18.265625 C1.6875 15.890625 1.6875 15.890625 0.625 13.265625 C0.955 12.605625 1.285 11.945625 1.625 11.265625 C2.285 11.265625 2.945 11.265625 3.625 11.265625 C3.625 10.275625 3.625 9.285625 3.625 8.265625 C2.965 8.265625 2.305 8.265625 1.625 8.265625 C1.625 8.925625 1.625 9.585625 1.625 10.265625 C-1.345 10.265625 -4.315 10.265625 -7.375 10.265625 C-7.5703125 4.2109375 -7.5703125 4.2109375 -7.375 2.265625 C-4.76631631 -0.34305869 -3.62967636 0.00833587 0 0 Z " fill="#F6F3F4" transform="translate(18.375,12.734375)"/>
<path d="M0 0 C2.60623142 0.35219343 4.60789115 0.76473469 6.875 2.125 C8 4 8 4 7.875 7.5 C7 11 7 11 5.8125 12.9375 C3.04411529 14.56034621 1.14454533 14.44922076 -2 14 C-4.375 12.25 -4.375 12.25 -6 10 C-6 8.68 -6 7.36 -6 6 C-5.34 6 -4.68 6 -4 6 C-3.34 7.32 -2.68 8.64 -2 10 C-0.02 10 1.96 10 4 10 C4.33 8.35 4.66 6.7 5 5 C4.175 4.54625 3.35 4.0925 2.5 3.625 C1.675 3.08875 0.85 2.5525 0 2 C0 1.34 0 0.68 0 0 Z " fill="#53515A" transform="translate(24,20)"/>
<path d="M0 0 C0.66 0 1.32 0 2 0 C2.226875 0.639375 2.45375 1.27875 2.6875 1.9375 C3.85250896 4.27193661 3.85250896 4.27193661 6.625 4.75 C7.40875 4.8325 8.1925 4.915 9 5 C9 5.33 9 5.66 9 6 C6.1875 6.6875 6.1875 6.6875 3 7 C1.125 5.8125 1.125 5.8125 0 4 C0 2.68 0 1.36 0 0 Z " fill="#605F67" transform="translate(18,26)"/>
<path d="M0 0 C0.99 0 1.98 0 3 0 C3 0.99 3 1.98 3 3 C2.01 3 1.02 3 0 3 C0 2.01 0 1.02 0 0 Z " fill="#444B54" transform="translate(47,41)"/>
</svg>
