<?xml version="1.0" encoding="UTF-8"?>
<svg version="1.1" xmlns="http://www.w3.org/2000/svg" width="500" height="500">
<path d="M0 0 C1.7510051 -0.0099852 1.7510051 -0.0099852 3.53738403 -0.02017212 C6.00000438 -0.03027064 8.46265194 -0.03499001 10.92529297 -0.03466797 C14.6759179 -0.03903989 18.42536429 -0.07538831 22.17578125 -0.11328125 C24.57551684 -0.11915034 26.97525797 -0.12311911 29.375 -0.125 C30.48777313 -0.13937103 31.60054626 -0.15374207 32.74703979 -0.16854858 C40.98568015 -0.12062626 47.1994859 1.35881341 53.6328125 6.6484375 C58.42587168 12.53705307 60.91389579 17.85863681 60.99731445 25.48071289 C61.01656731 27.01865257 61.01656731 27.01865257 61.03620911 28.58766174 C61.04359604 29.69181931 61.05098297 30.79597687 61.05859375 31.93359375 C61.0666655 33.07823593 61.07473724 34.22287811 61.08305359 35.40220642 C61.09688349 37.82728568 61.10761053 40.25238431 61.11547852 42.67749023 C61.12697639 45.14564761 61.14739307 47.61378055 61.17700195 50.08178711 C61.21989877 53.6575604 61.23588103 57.23259431 61.24609375 60.80859375 C61.26360184 61.8985817 61.28110992 62.98856964 61.29914856 64.11158752 C61.27831692 71.56934964 59.80734522 77.50826001 56.8203125 84.3359375 C59.4603125 84.6659375 62.1003125 84.9959375 64.8203125 85.3359375 C65.4453125 87.7109375 65.4453125 87.7109375 65.8203125 90.3359375 C63.46108612 92.69516388 62.93385371 92.61365788 59.72192383 92.74121094 C58.84404709 92.77869446 57.96617035 92.81617798 57.06169128 92.85479736 C56.0809816 92.88466736 55.10027191 92.91453735 54.08984375 92.9453125 C52.52179741 93.00099396 52.52179741 93.00099396 50.92207336 93.05780029 C36.139419 93.52506829 21.34711392 93.55954099 6.55834961 93.57617188 C2.29490647 93.58175975 -1.96823365 93.60608135 -6.23157978 93.63414383 C-9.54376671 93.65269802 -12.85587727 93.65797089 -16.1681118 93.65950775 C-17.74261405 93.6625275 -19.31711517 93.6705331 -20.89156532 93.68369293 C-23.07029513 93.70067699 -25.24823356 93.69889814 -27.42700195 93.69238281 C-28.66255325 93.69602844 -29.89810455 93.69967407 -31.1710968 93.70343018 C-34.1796875 93.3359375 -34.1796875 93.3359375 -36.10173035 91.81365967 C-36.45745621 91.32601135 -36.81318207 90.83836304 -37.1796875 90.3359375 C-36.5196875 88.6859375 -35.8596875 87.0359375 -35.1796875 85.3359375 C-32.5396875 85.0059375 -29.8996875 84.6759375 -27.1796875 84.3359375 C-27.82873047 83.29244141 -28.47777344 82.24894531 -29.14648438 81.17382812 C-32.07101492 75.28542936 -31.75362277 69.38323242 -31.7109375 62.9296875 C-31.7147644 61.65041382 -31.71859131 60.37114014 -31.72253418 59.05310059 C-31.72840149 56.35665364 -31.71995743 53.66073996 -31.70117188 50.96435547 C-31.67838254 47.5279469 -31.69152079 44.09278832 -31.71546173 40.65642548 C-31.73348646 37.35158239 -31.72082393 34.04706596 -31.7109375 30.7421875 C-31.71903442 29.51802124 -31.72713135 28.29385498 -31.73547363 27.03259277 C-31.64685241 18.91596447 -30.6520269 13.44546908 -25.28515625 7.09375 C-24.33576172 6.28550781 -24.33576172 6.28550781 -23.3671875 5.4609375 C-22.74199219 4.90664062 -22.11679688 4.35234375 -21.47265625 3.78125 C-14.86557453 -0.38335006 -7.55304193 0.01505201 0 0 Z M-21.4921875 14.8984375 C-24.41840665 19.12519849 -24.28829031 22.49823074 -24.2421875 27.5234375 C-24.2215625 29.7715625 -24.2009375 32.0196875 -24.1796875 34.3359375 C-16.2596875 34.3359375 -8.3396875 34.3359375 -0.1796875 34.3359375 C0.1503125 33.6759375 0.4803125 33.0159375 0.8203125 32.3359375 C3.8828125 31.7109375 3.8828125 31.7109375 6.8203125 31.3359375 C6.8203125 32.9859375 6.8203125 34.6359375 6.8203125 36.3359375 C4.8203125 37.3359375 2.8203125 38.3359375 0.8203125 39.3359375 C0.28696921 44.84715147 1.79853594 50.53007452 5.0390625 55.02734375 C7.85616287 57.77401661 10.51484916 58.71108385 14.3203125 58.9609375 C19.29996426 58.67542627 21.46346581 56.93840712 24.8203125 53.3359375 C27.13236822 50.0780408 27.29280607 47.27338392 26.8203125 43.3359375 C24.49758654 39.17104956 22.50977191 36.16900141 17.77734375 34.703125 C17.06964844 34.54070312 16.36195312 34.37828125 15.6328125 34.2109375 C13.745625 33.7778125 13.745625 33.7778125 11.8203125 33.3359375 C11.8203125 31.3559375 11.8203125 29.3759375 11.8203125 27.3359375 C17.28895707 28.35185171 22.58421263 29.40684807 27.8203125 31.3359375 C27.8203125 31.9959375 27.8203125 32.6559375 27.8203125 33.3359375 C30.37754479 34.61455365 32.18768352 34.44930359 35.046875 34.43359375 C36.59375 34.42875977 36.59375 34.42875977 38.171875 34.42382812 C39.79222656 34.41125977 39.79222656 34.41125977 41.4453125 34.3984375 C42.53328125 34.39392578 43.62125 34.38941406 44.7421875 34.38476562 C47.43495039 34.37295526 50.12760438 34.35648528 52.8203125 34.3359375 C53.75978171 22.54405431 53.75978171 22.54405431 48.8203125 12.3359375 C42.55160854 7.65746604 36.96702726 7.75073215 29.31640625 7.8046875 C28.11975845 7.8008606 26.92311066 7.79703369 25.69020081 7.79309082 C23.16788895 7.79037619 20.64554873 7.79770571 18.12329102 7.81445312 C14.26710204 7.83588587 10.41277228 7.81462421 6.55664062 7.7890625 C4.1015584 7.79170548 1.64647733 7.79682985 -0.80859375 7.8046875 C-2.5337899 7.79254211 -2.5337899 7.79254211 -4.2938385 7.78015137 C-12.31035968 7.87390703 -16.04152085 8.85850959 -21.4921875 14.8984375 Z " fill="#FC697C" transform="translate(99.1796875,208.6640625)"/>
<path d="M0 0 C1.7510051 -0.0099852 1.7510051 -0.0099852 3.53738403 -0.02017212 C6.00000438 -0.03027064 8.46265194 -0.03499001 10.92529297 -0.03466797 C14.6759179 -0.03903989 18.42536429 -0.07538831 22.17578125 -0.11328125 C24.57551684 -0.11915034 26.97525797 -0.12311911 29.375 -0.125 C30.48777313 -0.13937103 31.60054626 -0.15374207 32.74703979 -0.16854858 C40.98568015 -0.12062626 47.1994859 1.35881341 53.6328125 6.6484375 C58.42587168 12.53705307 60.91389579 17.85863681 60.99731445 25.48071289 C61.01656731 27.01865257 61.01656731 27.01865257 61.03620911 28.58766174 C61.04359604 29.69181931 61.05098297 30.79597687 61.05859375 31.93359375 C61.0666655 33.07823593 61.07473724 34.22287811 61.08305359 35.40220642 C61.09688349 37.82728568 61.10761053 40.25238431 61.11547852 42.67749023 C61.12697639 45.14564761 61.14739307 47.61378055 61.17700195 50.08178711 C61.21989877 53.6575604 61.23588103 57.23259431 61.24609375 60.80859375 C61.26360184 61.8985817 61.28110992 62.98856964 61.29914856 64.11158752 C61.27831692 71.56934964 59.80734522 77.50826001 56.8203125 84.3359375 C59.4603125 84.6659375 62.1003125 84.9959375 64.8203125 85.3359375 C65.4453125 87.7109375 65.4453125 87.7109375 65.8203125 90.3359375 C63.46108612 92.69516388 62.93385371 92.61365788 59.72192383 92.74121094 C58.84404709 92.77869446 57.96617035 92.81617798 57.06169128 92.85479736 C56.0809816 92.88466736 55.10027191 92.91453735 54.08984375 92.9453125 C52.52179741 93.00099396 52.52179741 93.00099396 50.92207336 93.05780029 C36.139419 93.52506829 21.34711392 93.55954099 6.55834961 93.57617188 C2.29490647 93.58175975 -1.96823365 93.60608135 -6.23157978 93.63414383 C-9.54376671 93.65269802 -12.85587727 93.65797089 -16.1681118 93.65950775 C-17.74261405 93.6625275 -19.31711517 93.6705331 -20.89156532 93.68369293 C-23.07029513 93.70067699 -25.24823356 93.69889814 -27.42700195 93.69238281 C-28.66255325 93.69602844 -29.89810455 93.69967407 -31.1710968 93.70343018 C-34.1796875 93.3359375 -34.1796875 93.3359375 -36.10173035 91.81365967 C-36.45745621 91.32601135 -36.81318207 90.83836304 -37.1796875 90.3359375 C-36.5196875 88.6859375 -35.8596875 87.0359375 -35.1796875 85.3359375 C-32.5396875 85.0059375 -29.8996875 84.6759375 -27.1796875 84.3359375 C-27.82873047 83.29244141 -28.47777344 82.24894531 -29.14648438 81.17382812 C-32.07101492 75.28542936 -31.75362277 69.38323242 -31.7109375 62.9296875 C-31.7147644 61.65041382 -31.71859131 60.37114014 -31.72253418 59.05310059 C-31.72840149 56.35665364 -31.71995743 53.66073996 -31.70117188 50.96435547 C-31.67838254 47.5279469 -31.69152079 44.09278832 -31.71546173 40.65642548 C-31.73348646 37.35158239 -31.72082393 34.04706596 -31.7109375 30.7421875 C-31.71903442 29.51802124 -31.72713135 28.29385498 -31.73547363 27.03259277 C-31.64685241 18.91596447 -30.6520269 13.44546908 -25.28515625 7.09375 C-24.33576172 6.28550781 -24.33576172 6.28550781 -23.3671875 5.4609375 C-22.74199219 4.90664062 -22.11679688 4.35234375 -21.47265625 3.78125 C-14.86557453 -0.38335006 -7.55304193 0.01505201 0 0 Z M-21.4921875 14.8984375 C-24.01242078 18.53877446 -24.31205122 21.31190852 -24.35668945 25.63012695 C-24.36952469 26.71167557 -24.38235992 27.79322418 -24.39558411 28.907547 C-24.40297104 30.07629868 -24.41035797 31.24505035 -24.41796875 32.44921875 C-24.4260405 33.65152634 -24.43411224 34.85383392 -24.44242859 36.09257507 C-24.45626722 38.63876911 -24.46699036 41.18498167 -24.47485352 43.73120117 C-24.49207313 47.62259073 -24.53596397 51.51313232 -24.58007812 55.40429688 C-24.59020447 57.87759792 -24.59872075 60.35090618 -24.60546875 62.82421875 C-24.62297684 63.98689774 -24.64048492 65.14957672 -24.65852356 66.3474884 C-24.64157144 72.66928759 -24.44354745 76.53626773 -20.1796875 81.3359375 C-19.6640625 81.9340625 -19.1484375 82.5321875 -18.6171875 83.1484375 C-15.59456529 85.64538628 -12.42009275 85.47133887 -8.68603516 85.49707031 C-7.56121735 85.50667786 -6.43639954 85.5162854 -5.27749634 85.52618408 C-4.06186005 85.53043396 -2.84622375 85.53468384 -1.59375 85.5390625 C-0.34467865 85.54476257 0.9043927 85.55046265 2.1913147 85.55633545 C4.83591353 85.56578848 7.4803988 85.57268388 10.125 85.57617188 C13.50666336 85.5816545 16.88792365 85.60568206 20.26946068 85.63414383 C23.50252646 85.65729442 26.73561293 85.65922134 29.96875 85.6640625 C31.78613174 85.6825827 31.78613174 85.6825827 33.64022827 85.70147705 C35.33691147 85.6969754 35.33691147 85.6969754 37.06787109 85.69238281 C38.0603183 85.69602844 39.0527655 85.69967407 40.07528687 85.70343018 C45.09052411 85.03201096 48.6025351 82.1085041 51.8203125 78.3359375 C54.07062262 73.99880346 54.096242 69.87562291 54.05078125 65.09765625 C54.05032303 64.29922806 54.04986481 63.50079987 54.0493927 62.67817688 C54.04637685 60.98620114 54.0385105 59.29422801 54.02612305 57.60229492 C54.00814342 55.07004416 54.00561186 52.53816663 54.00585938 50.00585938 C55.26233641 29.98816765 55.26233641 29.98816765 48.8203125 12.3359375 C42.55054299 7.65883787 36.96714534 7.75073131 29.31640625 7.8046875 C28.11975845 7.8008606 26.92311066 7.79703369 25.69020081 7.79309082 C23.16788895 7.79037619 20.64554873 7.79770571 18.12329102 7.81445312 C14.26710204 7.83588587 10.41277228 7.81462421 6.55664062 7.7890625 C4.1015584 7.79170548 1.64647733 7.79682985 -0.80859375 7.8046875 C-2.5337899 7.79254211 -2.5337899 7.79254211 -4.2938385 7.78015137 C-12.31035968 7.87390703 -16.04152085 8.85850959 -21.4921875 14.8984375 Z " fill="#464A53" transform="translate(99.1796875,208.6640625)"/>
<path d="M0 0 C1.07314453 -0.02900391 2.14628906 -0.05800781 3.25195312 -0.08789062 C10.96093064 -0.14926032 16.77812511 0.71109541 22.41015625 6.25390625 C24.34674662 10.13445045 24.05213551 14.09883208 23.4375 18.3125 C21.14491409 22.38820828 18.87638167 23.95617505 14.4375 25.3125 C15.118125 26.5190625 15.118125 26.5190625 15.8125 27.75 C17.6960056 31.87922383 18.59915904 35.87422434 19.4375 40.3125 C21.4175 39.6525 23.3975 38.9925 25.4375 38.3125 C26.0975 39.6325 26.7575 40.9525 27.4375 42.3125 C25.58005768 44.68589853 24.45902312 45.3065468 21.5 46.125 C18.17793948 46.32839146 17.12406492 46.17576276 14.4375 44.3125 C13.27734375 41.88671875 13.27734375 41.88671875 12.375 39 C11.03421426 34.78199164 9.64295566 30.51795566 6.4375 27.3125 C4.42155418 27.07822222 2.399026 26.89913876 0.375 26.75 C-1.584375 26.605625 -3.54375 26.46125 -5.5625 26.3125 C-5.5625 32.2525 -5.5625 38.1925 -5.5625 44.3125 C-7.8725 44.3125 -10.1825 44.3125 -12.5625 44.3125 C-12.58714513 38.2069529 -12.60533371 32.10143449 -12.61743164 25.99584961 C-12.62247288 23.91706844 -12.62930574 21.83829084 -12.63793945 19.75952148 C-12.65001422 16.77847414 -12.65573024 13.79747351 -12.66015625 10.81640625 C-12.66789818 9.41328941 -12.66789818 9.41328941 -12.67579651 7.98182678 C-12.67587204 7.12100998 -12.67594757 6.26019318 -12.67602539 5.37329102 C-12.678246 4.61162125 -12.68046661 3.84995148 -12.68275452 3.06520081 C-12.34243147 -1.89498284 -3.67147359 0.03226251 0 0 Z M-5.5625 6.3125 C-5.5625 11.2625 -5.5625 16.2125 -5.5625 21.3125 C5.41685 21.91909617 5.41685 21.91909617 15.4375 18.3125 C17.70930354 16.43581681 17.70930354 16.43581681 17.875 13.4375 C17.72017192 10.22265578 17.72017192 10.22265578 15.4921875 8.1328125 C11.2809996 5.62333224 7.92286251 5.86558694 3.125 6.0625 C1.87106445 6.08957031 1.87106445 6.08957031 0.59179688 6.1171875 C-1.46013228 6.16408874 -3.51146756 6.23582589 -5.5625 6.3125 Z " fill="#000000" transform="translate(381.5625,229.6875)"/>
<path d="M0 0 C5.81992162 3.44168122 8.42258041 7.38328384 10.75 13.625 C12.14148836 20.58244182 11.82045488 28.17553829 8.1875 34.375 C4.34376569 39.68774771 -0.04597924 43.5973291 -6.625 44.9375 C-15.3516403 45.62774274 -21.89158978 44.94967014 -29.375 40.1875 C-34.77193455 34.79056545 -36.74256879 28.81760984 -37 21.3125 C-36.93073968 14.22197495 -34.9046773 8.58635564 -30.1328125 3.27734375 C-22.12292389 -3.84025157 -9.53002242 -4.35658168 0 0 Z M-26.4375 8.8125 C-30.37517787 14.43775411 -31.54446589 19.12664154 -30.625 25.9375 C-28.89511748 31.24870687 -26.38930859 34.88345603 -21.625 37.9375 C-16.23817126 39.73310958 -9.89640951 39.90036167 -4.421875 38.2890625 C0.16715353 35.95464364 2.56347544 32.59429955 4.375 27.9375 C5.96321503 21.81152775 5.48138919 15.71588684 2.37109375 10.13671875 C-0.9733611 5.68848342 -5.124189 3.43465659 -10.60546875 2.65625 C-16.84727752 2.36649485 -22.21868561 4.02624274 -26.4375 8.8125 Z " fill="#010101" transform="translate(353.625,231.0625)"/>
<path d="M0 0 C7.96505906 7.76082677 7.96505906 7.76082677 8.4375 14.375 C5.4675 14.87 5.4675 14.87 2.4375 15.375 C2.10878906 14.56095703 2.10878906 14.56095703 1.7734375 13.73046875 C0.12322783 10.00743475 -0.99711779 7.77704957 -4.375 5.375 C-9.3632388 3.81006234 -12.93926078 3.71946108 -17.8125 5.6875 C-21.32600552 7.84351475 -22.97647684 9.14126703 -24.75 12.875 C-26.16351334 18.96398053 -26.42961412 24.8649328 -24.375 30.8125 C-21.963611 34.22170514 -19.29480245 36.50884878 -15.5625 38.375 C-10.10159404 38.87367554 -5.17557201 39.03751172 -0.0625 36.9375 C3.27995682 33.51148176 4.818366 29.83238065 6.4375 25.375 C8.4175 25.705 10.3975 26.035 12.4375 26.375 C11.50240196 32.65550922 10.2885132 36.93683899 5.4375 41.375 C-1.0792937 45.66166143 -7.92016419 46.50092431 -15.5625 45.375 C-22.88394475 43.14046623 -27.92305023 39.13014108 -31.5625 32.375 C-34.09965499 24.98415721 -33.69850301 15.75123517 -30.375 8.75 C-24.17024478 -1.91169207 -11.18261899 -5.10084375 0 0 Z " fill="#010101" transform="translate(266.5625,230.625)"/>
<path d="M0 0 C2.31 0 4.62 0 7 0 C10.87486034 8.18484222 14.25315514 16.51876625 17.50415039 24.96459961 C18.32397765 27.09228782 19.15096244 29.21710332 19.97851562 31.34179688 C20.50302822 32.69775271 21.02713252 34.05386657 21.55078125 35.41015625 C22.02169189 36.62840088 22.49260254 37.84664551 22.9777832 39.10180664 C24 42 24 42 24 44 C21.69 44 19.38 44 17 44 C16.01 40.7 15.02 37.4 14 34 C7.07 34 0.14 34 -7 34 C-7.495 36.475 -7.495 36.475 -8 39 C-8.63437344 40.6792238 -9.29289322 42.35008418 -10 44 C-12.31 44 -14.62 44 -17 44 C-12.00660401 29.06195038 -6.02278658 14.54568877 0 0 Z M3 7 C0.36 14.26 -2.28 21.52 -5 29 C0.61 29 6.22 29 12 29 C10.88200468 25.70579988 9.75598747 22.41473736 8.625 19.125 C8.30789063 18.18785156 7.99078125 17.25070313 7.6640625 16.28515625 C7.2 14.94130859 7.2 14.94130859 6.7265625 13.5703125 C6.44377441 12.74289551 6.16098633 11.91547852 5.86962891 11.06298828 C5.08073272 8.82945622 5.08073272 8.82945622 3 7 Z " fill="#010101" transform="translate(426,230)"/>
<path d="M0 0 C3.63 -0.0825 7.26 -0.165 11 -0.25 C12.12792969 -0.28641602 13.25585938 -0.32283203 14.41796875 -0.36035156 C21.87975379 -0.4419155 27.14861688 0.64556954 32.9375 5.6875 C34.62399805 9.3581134 35.11550455 12.97177877 35 17 C33.10877714 21.72805714 29.52256333 24.73871834 25 27 C23.55151418 27.08342159 22.09929131 27.10732861 20.6484375 27.09765625 C19.79765625 27.09443359 18.946875 27.09121094 18.0703125 27.08789062 C16.73613281 27.07532227 16.73613281 27.07532227 15.375 27.0625 C14.4778125 27.05798828 13.580625 27.05347656 12.65625 27.04882812 C10.43747169 27.03702611 8.21872757 27.01909039 6 27 C6 32.61 6 38.22 6 44 C4.02 44 2.04 44 0 44 C0 29.48 0 14.96 0 0 Z M6 6 C6 11.28 6 16.56 6 22 C8.35125 22.061875 10.7025 22.12375 13.125 22.1875 C13.85348145 22.21481201 14.58196289 22.24212402 15.33251953 22.27026367 C19.99331033 22.329045 23.05311274 21.43935438 27 19 C28.80898445 16.64045506 29.01165455 15.46618189 28.9375 12.5 C27.63110549 9.01628131 26.16188514 7.9648268 23 6 C20.04228928 5.52693936 17.17295627 5.61987114 14.1875 5.75 C13.39923828 5.76804688 12.61097656 5.78609375 11.79882812 5.8046875 C9.86535739 5.85155952 7.93251715 5.9232959 6 6 Z " fill="#010101" transform="translate(184,230)"/>
<path d="M0 0 C6.50313209 -0.46450943 10.4174808 0.67424388 16 4 C16 4.66 16 5.32 16 6 C16.66 6 17.32 6 18 6 C21.40804899 12.24808982 21.6973924 17.95731902 21 25 C19.25898698 30.53027665 15.54734623 33.63605954 11 37 C6.77824366 39.11087817 1.58395579 38.50549888 -3 38 C-8.70175886 35.87329895 -12.09892763 32.33797315 -15 27 C-16.1577506 23.52674819 -16.06866652 20.63932552 -16 17 C-15.360625 16.87625 -14.72125 16.7525 -14.0625 16.625 C-13.381875 16.41875 -12.70125 16.2125 -12 16 C-11.67 15.34 -11.34 14.68 -11 14 C-9.46010765 16.63981545 -8.76831373 19.0350842 -8.1875 22 C-7.46057218 24.9517675 -6.94396373 26.06792275 -4.9375 28.5 C-0.88071637 30.57154909 2.5312067 30.81103327 7 30 C10.47485838 27.92987161 12.74352278 25.88365688 14 22 C14.49494564 17.34751094 13.80764101 14.74352135 11 11 C8.30669878 9.20446585 6.8539399 8.57303539 3.8125 7.875 C2.554375 7.58625 1.29625 7.2975 0 7 C-1.125 2.25 -1.125 2.25 0 0 Z " fill="#474851" transform="translate(111,236)"/>
<path d="M0 0 C11.55 0 23.1 0 35 0 C35 1.98 35 3.96 35 6 C30.38 6 25.76 6 21 6 C21 18.54 21 31.08 21 44 C18.69 44 16.38 44 14 44 C14 31.46 14 18.92 14 6 C9.38 6 4.76 6 0 6 C0 4.02 0 2.04 0 0 Z " fill="#000000" transform="translate(280,230)"/>
<path d="M0 0 C1.98 0 3.96 0 6 0 C6 14.52 6 29.04 6 44 C4.02 44 2.04 44 0 44 C0 29.48 0 14.96 0 0 Z " fill="#010101" transform="translate(223,230)"/>
<path d="M0 0 C3.81248426 -0.02887236 7.6249407 -0.04675492 11.4375 -0.0625 C12.52611328 -0.07087891 13.61472656 -0.07925781 14.73632812 -0.08789062 C15.77080078 -0.09111328 16.80527344 -0.09433594 17.87109375 -0.09765625 C18.82943115 -0.10289307 19.78776855 -0.10812988 20.77514648 -0.11352539 C23 0 23 0 24 1 C24.1134515 3.78823738 24.16418263 6.55077345 24.16796875 9.33984375 C24.17129715 10.17713516 24.17462555 11.01442657 24.17805481 11.87709045 C24.18312756 13.65169728 24.18546303 15.42631367 24.18530273 17.20092773 C24.18748797 19.92252256 24.20563633 22.64371143 24.22460938 25.36523438 C24.22754342 27.08593611 24.22952814 28.80663977 24.23046875 30.52734375 C24.23765427 31.34508774 24.24483978 32.16283173 24.25224304 33.00535583 C24.22882204 38.77117796 24.22882204 38.77117796 22 41 C22 28.13 22 15.26 22 2 C15.73 1.67 9.46 1.34 3 1 C3.66 2.98 4.32 4.96 5 7 C5.52797663 12.16330091 5.6719918 17.39823634 3 22 C2.34 22.33 1.68 22.66 1 23 C1.16113281 22.29746094 1.32226562 21.59492188 1.48828125 20.87109375 C2.02110662 17.88157737 2.16796903 15.09761248 2.1875 12.0625 C2.20167969 11.06347656 2.21585938 10.06445312 2.23046875 9.03515625 C1.98101672 5.74999988 1.15862056 3.07286323 0 0 Z " fill="#CF6C7C" transform="translate(129,243)"/>
<path d="M0 0 C1.98 0 3.96 0 6 0 C6.6875 2.3125 6.6875 2.3125 7 5 C5.75 6.8125 5.75 6.8125 4 8 C3.01 8 2.02 8 1 8 C0.731875 8.639375 0.46375 9.27875 0.1875 9.9375 C-1 12 -1 12 -4 13 C-4.36263859 18.8022175 -3.25684543 22.63999211 -1 28 C-1.66 28 -2.32 28 -3 28 C-7.7540499 19.28792716 -7.7540499 19.28792716 -8 14 C-7.34 13.01 -6.68 12.02 -6 11 C-4.68 11 -3.36 11 -2 11 C-1.67 9.02 -1.34 7.04 -1 5 C-8.59 5 -16.18 5 -24 5 C-24.33 4.34 -24.66 3.68 -25 3 C-17.08 3 -9.16 3 -1 3 C-0.67 2.01 -0.34 1.02 0 0 Z " fill="#D36874" transform="translate(100,240)"/>
<path d="M0 0 C1.2380014 3.57644848 0.74926071 6.33694766 0 10 C-7.89650959 11.72738634 -15.38001008 12.27239021 -23.44921875 12.1953125 C-24.58784866 12.1924826 -25.72647858 12.18965271 -26.89961243 12.18673706 C-30.49568707 12.17564393 -34.09150209 12.15055997 -37.6875 12.125 C-40.1425745 12.11495615 -42.59765295 12.10583277 -45.05273438 12.09765625 C-51.03524312 12.07574032 -57.017603 12.04237281 -63 12 C-63 11.34 -63 10.68 -63 10 C-62.33458694 9.99413376 -61.66917389 9.98826752 -60.9835968 9.98222351 C-54.05657423 9.91827904 -47.13001579 9.83385609 -40.20336914 9.73754883 C-37.61847046 9.70429889 -35.03349916 9.67626723 -32.44848633 9.65356445 C-28.73226991 9.62002073 -25.01671899 9.56770272 -21.30078125 9.51171875 C-20.14540359 9.50532883 -18.99002594 9.4989389 -17.79963684 9.49235535 C-16.71889389 9.47256119 -15.63815094 9.45276703 -14.5246582 9.43237305 C-13.57645706 9.42126999 -12.62825592 9.41016693 -11.65132141 9.39872742 C-7.26472201 8.73903469 -3.82099278 6.38519134 -1 3 C-0.67 2.01 -0.34 1.02 0 0 Z " fill="#724D58" transform="translate(151,284)"/>
<path d="M0 0 C3.79768838 3.16474031 5.17437521 6.23037257 6 11 C6.26023899 15.02215054 6.23307737 19.02948695 6.1953125 23.05859375 C6.1924826 24.20288345 6.18965271 25.34717316 6.18673706 26.52613831 C6.17558578 30.16336743 6.15049014 33.80034591 6.125 37.4375 C6.11496369 39.91080372 6.10583898 42.38411132 6.09765625 44.85742188 C6.07566296 50.90503273 6.04223564 56.95249845 6 63 C5.34 62.67 4.68 62.34 4 62 C4.00785522 60.35970825 4.00785522 60.35970825 4.01586914 58.6862793 C4.03414089 54.58049354 4.04551204 50.47471129 4.05493164 46.36889648 C4.05992164 44.60098666 4.06671601 42.83308089 4.07543945 41.06518555 C4.15073597 27.00531541 4.15073597 27.00531541 3 13 C2.01 13.33 1.02 13.66 0 14 C-0.33 16.64 -0.66 19.28 -1 22 C-1.33 22 -1.66 22 -2 22 C-2.33 17.05 -2.66 12.1 -3 7 C-2.34 7 -1.68 7 -1 7 C-0.67 4.69 -0.34 2.38 0 0 Z " fill="#3C4148" transform="translate(154,218)"/>
<path d="M0 0 C10.55266758 3.63885089 10.55266758 3.63885089 14 7 C14.50169417 10.3891042 14.35030668 13.60072776 14 17 C9.96382747 15.65460916 7.9707212 13.9707212 5 11 C2.39089477 9.23546062 -0.29025999 7.60479748 -3 6 C-2.01 4.02 -1.02 2.04 0 0 Z M0 5 C0.33 5.66 0.66 6.32 1 7 C1.33 6.34 1.66 5.68 2 5 C1.34 5 0.68 5 0 5 Z " fill="#444A52" transform="translate(140,209)"/>
<path d="M0 0 C2.87774045 3.13935322 3.63108608 6.05682471 4.52734375 10.09375 C5.06217524 12.25075635 5.8812844 14.08220182 7 16 C6.34 16 5.68 16 5 16 C5.33 17.32 5.66 18.64 6 20 C4.68 20 3.36 20 2 20 C-2.11010617 15.76900835 -3.93221288 12.0675071 -4.125 6.1875 C-4.063125 4.6096875 -4.063125 4.6096875 -4 3 C-2.68 2.67 -1.36 2.34 0 2 C0 1.34 0 0.68 0 0 Z " fill="#42484F" transform="translate(99,250)"/>
<path d="M0 0 C0.33 0 0.66 0 1 0 C1.01458252 1.24088379 1.02916504 2.48176758 1.04418945 3.76025391 C1.10230723 8.37870621 1.17953947 12.99667784 1.26245117 17.61474609 C1.29563713 19.61076029 1.32368868 21.60686689 1.34643555 23.60302734 C1.38009793 26.4779384 1.43241977 29.35200743 1.48828125 32.2265625 C1.49786613 33.55815903 1.49786613 33.55815903 1.50764465 34.91665649 C1.62794822 40.02449318 2.25306056 43.52942801 5 48 C3.68 48 2.36 48 1 48 C-0.89457074 42.40123138 -1.28108658 37.48848306 -1.23046875 31.6015625 C-1.23001053 30.72599701 -1.22955231 29.85043152 -1.2290802 28.94833374 C-1.22607545 27.11121248 -1.2182429 25.27409337 -1.20581055 23.43701172 C-1.18742098 20.61286508 -1.18530202 17.78904434 -1.18554688 14.96484375 C-1.18063604 13.17708048 -1.17480963 11.38931943 -1.16796875 9.6015625 C-1.16685593 8.75373199 -1.1657431 7.90590149 -1.16459656 7.03237915 C-1.1160911 1.1160911 -1.1160911 1.1160911 0 0 Z " fill="#764953" transform="translate(74,242)"/>
<path d="M0 0 C1.32 0.33 2.64 0.66 4 1 C0.26634837 3.57468538 -2.21617987 4.37519009 -6.73657227 4.37231445 C-8.42841393 4.38165764 -8.42841393 4.38165764 -10.1544342 4.39118958 C-11.36288498 4.38197983 -12.57133575 4.37277008 -13.81640625 4.36328125 C-15.68932594 4.36402901 -15.68932594 4.36402901 -17.6000824 4.36479187 C-20.23720321 4.3624532 -22.87351757 4.35432148 -25.51049805 4.33618164 C-28.88543069 4.31347162 -32.25991583 4.31295702 -35.63490391 4.31969929 C-38.86210495 4.32384872 -42.08922689 4.31186513 -45.31640625 4.30078125 C-47.13211876 4.30214836 -47.13211876 4.30214836 -48.98451233 4.30354309 C-50.67162575 4.28924507 -50.67162575 4.28924507 -52.39282227 4.2746582 C-53.38145767 4.27005081 -54.37009308 4.26544342 -55.38868713 4.26069641 C-58.06022821 3.99398721 -59.71110467 3.36376705 -62 2 C-60.0625 1.4375 -60.0625 1.4375 -58 1 C-57.67 1.33 -57.34 1.66 -57 2 C-55.22008076 2.09370624 -53.43643261 2.11744271 -51.65405273 2.11352539 C-50.5129454 2.11344986 -49.37183807 2.11337433 -48.19615173 2.11329651 C-46.33368553 2.10555458 -46.33368553 2.10555458 -44.43359375 2.09765625 C-43.16983414 2.0962413 -41.90607452 2.09482635 -40.60401917 2.09336853 C-37.23875111 2.08870582 -33.8735501 2.0797148 -30.50830078 2.06866455 C-27.0765033 2.05844846 -23.64469891 2.05387049 -20.21289062 2.04882812 C-13.47524176 2.0377738 -6.73762475 2.0210171 0 2 C0 1.34 0 0.68 0 0 Z " fill="#E37082" transform="translate(143,290)"/>
<path d="M0 0 C3 0.25 3 0.25 5 2.25 C4.67028521 5.54714793 4.3773161 6.8726839 2 9.25 C-3.56818182 8.68181818 -3.56818182 8.68181818 -5 7.25 C-5.1875 4.8125 -5.1875 4.8125 -5 2.25 C-3 0.25 -3 0.25 0 0 Z " fill="#41474F" transform="translate(137,227.75)"/>
<path d="M0 0 C0.598125 0.20625 1.19625 0.4125 1.8125 0.625 C2.4375 3 2.4375 3 2.8125 5.625 C2.1525 6.285 1.4925 6.945 0.8125 7.625 C-1.8125 7.25 -1.8125 7.25 -4.1875 6.625 C-4.5175 4.975 -4.8475 3.325 -5.1875 1.625 C-2.1875 -0.375 -2.1875 -0.375 0 0 Z " fill="#3E414C" transform="translate(178.1875,293.375)"/>
<path d="M0 0 C0.5534764 2.07553648 1 3.84365964 1 6 C0.01 6.495 0.01 6.495 -1 7 C-0.56347428 11.53986747 -0.22142939 14.65466948 3 18 C3.99 18.66 4.98 19.32 6 20 C4.68 20 3.36 20 2 20 C-2.11010617 15.76900835 -3.93221288 12.0675071 -4.125 6.1875 C-4.063125 4.6096875 -4.063125 4.6096875 -4 3 C-2.68 2.67 -1.36 2.34 0 2 C0 1.34 0 0.68 0 0 Z " fill="#64464F" transform="translate(99,250)"/>
<path d="M0 0 C1.4540625 0.0309375 1.4540625 0.0309375 2.9375 0.0625 C3.625 2.375 3.625 2.375 3.9375 5.0625 C2.75 6.875 2.75 6.875 0.9375 8.0625 C-0.3825 8.0625 -1.7025 8.0625 -3.0625 8.0625 C-3.44313221 5.7364143 -3.77519945 3.40194736 -4.0625 1.0625 C-3.0625 0.0625 -3.0625 0.0625 0 0 Z " fill="#4A464D" transform="translate(103.0625,239.9375)"/>
<path d="M0 0 C0.33 0.99 0.66 1.98 1 3 C0.01 3.33 -0.98 3.66 -2 4 C-2.36263859 9.8022175 -1.25684543 13.63999211 1 19 C0.34 19 -0.32 19 -1 19 C-5.7540499 10.28792716 -5.7540499 10.28792716 -6 5 C-5.34 4.01 -4.68 3.02 -4 2 C-2.68 2 -1.36 2 0 2 C0 1.34 0 0.68 0 0 Z " fill="#DD6F7F" transform="translate(98,249)"/>
<path d="M0 0 C0.66 0.33 1.32 0.66 2 1 C-2.66917508 4.80906388 -4.83375187 6.16137533 -10.875 6.25 C-12.44894531 6.28867187 -12.44894531 6.28867187 -14.0546875 6.328125 C-17.30556586 5.96595818 -18.62350767 5.18132146 -21 3 C-19.35 3 -17.7 3 -16 3 C-16 3.66 -16 4.32 -16 5 C-15.32453125 4.855625 -14.6490625 4.71125 -13.953125 4.5625 C-13.06109375 4.376875 -12.1690625 4.19125 -11.25 4 C-10.36828125 3.814375 -9.4865625 3.62875 -8.578125 3.4375 C-6 3 -6 3 -2 3 C-2 2.34 -2 1.68 -2 1 C-1.34 0.67 -0.68 0.34 0 0 Z " fill="#63424E" transform="translate(125,268)"/>
<path d="M0 0 C1.2380014 3.57644848 0.74926071 6.33694766 0 10 C-3.32534757 11.10844919 -5.62182575 10.84454356 -9 10 C-8.236875 9.401875 -7.47375 8.80375 -6.6875 8.1875 C-2.36789787 4.78488452 -2.36789787 4.78488452 0 0 Z " fill="#604650" transform="translate(151,284)"/>
<path d="M0 0 C0.33 1.32 0.66 2.64 1 4 C-0.65848177 5.01351664 -2.32665961 6.01120795 -4 7 C-4.598125 7.3609375 -5.19625 7.721875 -5.8125 8.09375 C-8.5791729 9.23994306 -10.76646885 9.19603646 -13.75 9.125 C-14.73484375 9.10695313 -15.7196875 9.08890625 -16.734375 9.0703125 C-17.85585937 9.03550781 -17.85585937 9.03550781 -19 9 C-19 8.67 -19 8.34 -19 8 C-18.02160156 7.96132813 -18.02160156 7.96132813 -17.0234375 7.921875 C-9.69643276 7.44637617 -5.0183697 5.57596633 0 0 Z " fill="#D46C7E" transform="translate(129,266)"/>
<path d="M0 0 C1.71017726 2.5652659 2.90417811 4.87960965 4.125 7.6875 C4.47820312 8.49574219 4.83140625 9.30398438 5.1953125 10.13671875 C5.46085937 10.75160156 5.72640625 11.36648438 6 12 C4.68 12 3.36 12 2 12 C0.70756464 7.8803623 -0.26252625 4.33168317 0 0 Z " fill="#62424D" transform="translate(73,278)"/>
<path d="M0 0 C0.66 0.33 1.32 0.66 2 1 C0.19587357 4.26460973 -0.83394693 5.88929795 -4 8 C-3.40072174 4.64404172 -2.15377564 2.62198774 0 0 Z " fill="#3F4048" transform="translate(125,259)"/>
</svg>
